<svg width="85" height="85" viewBox="0 0 85 85" fill="none" xmlns="http://www.w3.org/2000/svg">
<circle cx="42.5" cy="42.5" r="42" stroke="white"/>
<path d="M31.25 22.625C31.2503 22.3267 31.369 22.0408 31.5799 21.8299C31.7908 21.619 32.0767 21.5003 32.375 21.5H52.625C52.9233 21.5003 53.2092 21.619 53.4201 21.8299C53.631 22.0408 53.7497 22.3267 53.75 22.625V26.75H55.25V22.625C55.2492 21.9291 54.9724 21.2618 54.4803 20.7697C53.9882 20.2776 53.3209 20.0008 52.625 20H32.375C31.6791 20.0008 31.0118 20.2776 30.5197 20.7697C30.0276 21.2618 29.7508 21.9291 29.75 22.625V26.75H31.25V22.625Z" fill="white"/>
<path d="M53.75 59H31.25V56.75H29.75V62.375C29.7508 63.0709 30.0276 63.7382 30.5197 64.2303C31.0118 64.7224 31.6791 64.9992 32.375 65H52.625C53.3209 64.9992 53.9882 64.7224 54.4803 64.2303C54.9724 63.7382 55.2492 63.0709 55.25 62.375V56.75H53.75V59ZM52.625 63.5H32.375C32.0767 63.4997 31.7908 63.381 31.5799 63.1701C31.369 62.9592 31.2503 62.6733 31.25 62.375V60.5H53.75V62.375C53.7497 62.6733 53.631 62.9592 53.4201 63.1701C53.2092 63.381 52.9233 63.4997 52.625 63.5Z" fill="white"/>
<path d="M39.5 23.75H45.5V25.25H39.5V23.75Z" fill="white"/>
<path d="M63.5 53.5625C63.5 53.6122 63.4802 53.6599 63.4451 53.6951C63.4099 53.7302 63.3622 53.75 63.3125 53.75H21.6875C21.6378 53.75 21.5901 53.7302 21.5549 53.6951C21.5198 53.6599 21.5 53.6122 21.5 53.5625V34.25H20V53.5625C20.0005 54.0099 20.1785 54.4388 20.4948 54.7552C20.8112 55.0715 21.2401 55.2495 21.6875 55.25H63.3125C63.7599 55.2495 64.1888 55.0715 64.5052 54.7552C64.8215 54.4388 64.9995 54.0099 65 53.5625V47.75H63.5V53.5625Z" fill="white"/>
<path d="M63.3125 28.25H21.6875C21.2401 28.2505 20.8112 28.4285 20.4948 28.7448C20.1785 29.0612 20.0005 29.4901 20 29.9375V32.75H21.5V29.9375C21.5 29.8878 21.5198 29.8401 21.5549 29.8049C21.5901 29.7698 21.6378 29.75 21.6875 29.75H63.3125C63.3622 29.75 63.4099 29.7698 63.4451 29.8049C63.4802 29.8401 63.5 29.8878 63.5 29.9375V46.25H65V29.9375C64.9995 29.4901 64.8215 29.0612 64.5052 28.7448C64.1888 28.4285 63.7599 28.2505 63.3125 28.25Z" fill="white"/>
<path d="M47.75 47.75H49.25V50.75H47.75V47.75Z" fill="white"/>
<path d="M44.75 47.75H46.25V50.75H44.75V47.75Z" fill="white"/>
<path d="M50.75 47.75H53.75V50.75H50.75V47.75Z" fill="white"/>
<path d="M55.25 47.75H56.75V50.75H55.25V47.75Z" fill="white"/>
<path d="M58.25 47.75H61.25V50.75H58.25V47.75Z" fill="white"/>
<path d="M44.75 40.25H55.25V41.75H44.75V40.25Z" fill="white"/>
<path d="M56.75 40.25H61.25V41.75H56.75V40.25Z" fill="white"/>
<path d="M50.75 43.25H61.25V44.75H50.75V43.25Z" fill="white"/>
<path d="M44.75 43.25H49.25V44.75H44.75V43.25Z" fill="white"/>
<path d="M44.75 37.25H47.75V38.75H44.75V37.25Z" fill="white"/>
<path d="M49.25 37.25H55.25V38.75H49.25V37.25Z" fill="white"/>
<path d="M53.75 32.75H55.25V34.25H53.75V32.75Z" fill="white"/>
<path d="M56.75 32.75H58.25V34.25H56.75V32.75Z" fill="white"/>
<path d="M59.75 32.75H61.25V34.25H59.75V32.75Z" fill="white"/>
<path d="M44.75 34.25H51.5V35.75H44.75V34.25Z" fill="white"/>
<path d="M41 52.25C41.1989 52.25 41.3897 52.171 41.5303 52.0303C41.671 51.8897 41.75 51.6989 41.75 51.5V32C41.75 31.8011 41.671 31.6103 41.5303 31.4697C41.3897 31.329 41.1989 31.25 41 31.25H24.5C24.3011 31.25 24.1103 31.329 23.9697 31.4697C23.829 31.6103 23.75 31.8011 23.75 32V51.5C23.75 51.6989 23.829 51.8897 23.9697 52.0303C24.1103 52.171 24.3011 52.25 24.5 52.25H41ZM25.25 48.9491C25.2513 48.5295 25.3799 48.1202 25.6189 47.7754C25.8579 47.4305 26.1959 47.1664 26.5883 47.0178L30.2375 45.65L30.65 46.2004C30.8945 46.5264 31.2116 46.791 31.5761 46.9733C31.9406 47.1555 32.3425 47.2504 32.75 47.2504C33.1575 47.2504 33.5594 47.1555 33.9239 46.9733C34.2884 46.791 34.6055 46.5264 34.85 46.2004L35.2625 45.65L38.9114 47.0188C39.3037 47.1672 39.6417 47.4312 39.8807 47.7759C40.1197 48.1205 40.2485 48.5296 40.25 48.9491V50.75H25.25V48.9491ZM34.1642 44.6143L33.65 45.3C33.5452 45.4398 33.4093 45.5532 33.2531 45.6313C33.0969 45.7094 32.9247 45.75 32.75 45.75C32.5753 45.75 32.4031 45.7094 32.2469 45.6313C32.0907 45.5532 31.9548 45.4398 31.85 45.3L31.3358 44.6143L31.7906 43.25H33.7094L34.1642 44.6143ZM35 40.625C34.9997 40.9233 34.881 41.2092 34.6701 41.4201C34.4592 41.631 34.1733 41.7497 33.875 41.75H31.625C31.3267 41.7497 31.0408 41.631 30.8299 41.4201C30.619 41.2092 30.5003 40.9233 30.5 40.625V36.875C30.5003 36.5767 30.619 36.2908 30.8299 36.0799C31.0408 35.869 31.3267 35.7503 31.625 35.75H33.875C34.1733 35.7503 34.4592 35.869 34.6701 36.0799C34.881 36.2908 34.9997 36.5767 35 36.875V40.625ZM40.25 32.75V46.046C39.9995 45.867 39.7267 45.7215 39.4384 45.6133L35.5983 44.1733L35.1754 42.9046C35.5775 42.6751 35.9118 42.3434 36.1444 41.943C36.3771 41.5427 36.4997 41.088 36.5 40.625V36.875C36.4992 36.1791 36.2224 35.5118 35.7303 35.0197C35.2382 34.5276 34.5709 34.2508 33.875 34.25H31.625C30.9291 34.2508 30.2618 34.5276 29.7697 35.0197C29.2776 35.5118 29.0008 36.1791 29 36.875V40.625C29.0003 41.088 29.1229 41.5427 29.3556 41.943C29.5882 42.3434 29.9225 42.6751 30.3246 42.9046L29.9017 44.1733L26.0616 45.6133C25.7733 45.7215 25.5005 45.867 25.25 46.046V32.75H40.25Z" fill="white"/>
</svg>
